<svg xmlns="http://www.w3.org/2000/svg" version="1.1" width="100" height="100" viewBox="-0.5 -0.5 1 1">
	<path d="m -0.225,-0.4 0.19407147,0.30102871 -0.1,0 -0.09303474,0.23023885 a 0.05,0.05 0 0 0 0.04635834,0.06873244 l 0.08772038,0 0.0625,0.2 -0.37261545,0 a 0.1,0.1 0 0 1 -0.09271667,-0.13746489 z"/>
	<path d="m -0.225,-0.4 0.25,0 0.08,0.15 c 0.015,0.028125 0.035,0.01818182 0.05,0.01 l 0.055,-0.03 -0.045,0.245 c -0.0055102,0.03 0.022,0.03485714 0.035,0.02 l 0.105,-0.12 0.02,0.06 c 0.005,0.015 0.02,0.01615385 0.025,0.015 l 0.13,-0.03 -0.035,0.13 c -0.00933965,0.03469013 0,0.04055556 0.01,0.045 l 0.045,0.02 -0.23,0.19 c -0.00605263,0.005 -0.01461538,0.01 -0.01,0.03 l 0.015,0.065 -0.25,0 z" fill="red"/>
</svg>
